HIERARCHY
ROOT Hips
{
  OFFSET 0.000000 0.000000 0.000000
  CHANNELS 6 Xposition Yposition Zposition Xrotation Yrotation Zrotation
  JOINT Spine
  {
    OFFSET -0.624153 -23.598274 -3.958642
    CHANNELS 3 Xrotation Yrotation Zrotation
    JOINT Chest
    {
      OFFSET -0.624153 -23.598274 -3.958642
      CHANNELS 3 Xrotation Yrotation Zrotation
      JOINT Neck
      {
        OFFSET -0.546174 -18.644868 -6.479510
        CHANNELS 3 Xrotation Yrotation Zrotation
        JOINT Head
        {
          OFFSET 3.588497 1.868606 -11.871715
          CHANNELS 3 Xrotation Yrotation Zrotation
          End Site
          {
            OFFSET 0.0 5.0 2.0
          }
        }
      }
      JOINT LeftShoulder
      {
        OFFSET 16.505241 -0.547780 1.617888
        CHANNELS 3 Xrotation Yrotation Zrotation
        JOINT LeftArm
        {
          OFFSET 2.564879 23.616543 1.543496
          CHANNELS 3 Xrotation Yrotation Zrotation
          JOINT LeftForeArm
          {
            OFFSET 4.020360 22.789760 -11.612663
            CHANNELS 3 Xrotation Yrotation Zrotation
            JOINT LeftHand
            {
              OFFSET -0.356637 6.967001 -3.441520
              CHANNELS 3 Xrotation Yrotation Zrotation
              End Site
              {
                OFFSET -3.0 0.0 2.0
              }
            }
          }
        }
      }
      JOINT RightShoulder
      {
        OFFSET -16.505241 0.547780 -1.617888
        CHANNELS 3 Xrotation Yrotation Zrotation
        JOINT RightArm
        {
          OFFSET -6.034817 23.953365 3.933872
          CHANNELS 3 Xrotation Yrotation Zrotation
          JOINT RightForeArm
          {
            OFFSET -1.473205 22.074566 -7.634092
            CHANNELS 3 Xrotation Yrotation Zrotation
            JOINT RightHand
            {
              OFFSET 1.290688 6.162727 -3.022642
              CHANNELS 3 Xrotation Yrotation Zrotation
              End Site
              {
                OFFSET 3.0 0.0 2.0
              }
            }
          }
        }
      }
    }
  }
  JOINT LeftUpLeg
  {
    OFFSET 11.283392 -0.161461 1.096630
    CHANNELS 3 Xrotation Yrotation Zrotation
    JOINT LeftLeg
    {
      OFFSET 2.074195 42.474717 -2.086477
      CHANNELS 3 Xrotation Yrotation Zrotation
      JOINT LeftFoot
      {
        OFFSET 6.085755 37.146968 8.147317
        CHANNELS 3 Xrotation Yrotation Zrotation
        JOINT LeftToeBase
        {
          OFFSET 9.583741 8.393842 -11.900412
          CHANNELS 3 Xrotation Yrotation Zrotation
          End Site
          {
            OFFSET 0.0 -1.0 3.0
          }
        }
      }
    }
  }
  JOINT RightUpLeg
  {
    OFFSET -11.283392 0.161461 -1.096630
    CHANNELS 3 Xrotation Yrotation Zrotation
    JOINT RightLeg
    {
      OFFSET 3.548064 40.758382 2.000000
      CHANNELS 3 Xrotation Yrotation Zrotation
      JOINT RightFoot
      {
        OFFSET 4.736430 37.901807 10.975153
        CHANNELS 3 Xrotation Yrotation Zrotation
        JOINT RightToeBase
        {
          OFFSET -5.104451 9.452981 -11.921077
          CHANNELS 3 Xrotation Yrotation Zrotation
          End Site
          {
            OFFSET 0.0 -1.0 3.0
          }
        }
      }
    }
  }
}
MOTION
Frames: 12
Frame Time: 0.066667
0.000000 0.000000 0.000000 0.000000 0.000000 0.000000 0.000000 0.000000 0.000000 0.000000 0.000000 0.000000 0.000000 0.000000 0.000000 0.000000 0.000000 0.000000 0.000000 0.000000 0.000000 0.000000 0.000000 0.000000 0.000000 0.000000 0.000000 0.000000 0.000000 0.000000 0.000000 0.000000 0.000000 0.000000 0.000000 0.000000 0.000000 0.000000 0.000000 0.000000 0.000000 0.000000 0.000000 0.000000 0.000000 0.000000 0.000000 0.000000 84.088769 -48.635310 -44.343400 0.000000 0.000000 0.000000 -2.370120 0.206262 -0.004267 0.000000 0.000000 0.000000 96.755614 28.201726 31.572384 0.000000 0.000000 0.000000
0.000000 0.000000 0.000000 0.005998 0.074179 -0.051134 0.239792 -0.001976 -0.025710 0.019681 0.724338 0.047665 -0.142663 2.006598 0.268773 0.000000 0.000000 0.000000 -1.565222 0.149346 0.398062 -1.289290 0.616705 0.739262 -0.556676 0.100009 0.257153 0.000000 0.000000 0.000000 -0.029640 0.009033 -0.100622 -0.443584 -0.063175 -0.095746 -0.181236 -0.056783 -0.192492 0.000000 0.000000 0.000000 0.004490 -0.020129 -0.405695 -0.023024 -0.117264 0.551957 83.732112 -48.615920 -43.826088 0.000000 0.000000 0.000000 -2.256450 0.196493 -0.007902 -0.090401 0.034012 -0.078695 96.675511 28.206216 32.443972 0.000000 0.000000 0.000000
0.000000 0.000000 0.000000 0.026877 0.075894 -0.267177 2.009251 -0.037257 -0.086351 0.054756 2.558479 0.400249 -0.732557 4.329421 0.427334 0.000000 0.000000 0.000000 -4.922126 0.511727 0.992572 -4.201976 1.676715 1.646834 -2.877672 0.527046 1.287100 0.000000 0.000000 0.000000 -1.253152 -0.359901 0.293874 -2.774048 -0.396192 -0.560945 -1.233727 0.055306 -0.405674 0.000000 0.000000 0.000000 -0.444419 -0.087394 -2.059291 0.388431 -0.556927 2.204889 82.772786 -48.543299 -41.162695 0.000000 0.000000 0.000000 -2.230748 0.193907 0.004124 -0.323205 0.065872 -0.089077 97.301337 28.165278 33.830317 0.000000 0.000000 0.000000
0.000000 0.000000 0.000000 0.070713 0.090359 -0.720117 3.975816 -0.070606 -0.172879 0.001110 3.095732 1.431742 -0.878991 5.207995 0.507039 0.000000 0.000000 0.000000 -3.048575 0.274311 1.464869 -3.665647 1.388678 1.322783 -3.073523 0.315711 0.900563 0.000000 0.000000 0.000000 0.636196 0.082810 0.456270 -1.690681 -0.196448 -0.229014 -0.266377 -0.029551 -0.173124 0.000000 0.000000 0.000000 -5.349260 -0.062448 -3.377737 7.771058 -2.514613 4.132659 80.997100 -48.110036 -24.543632 0.000000 0.000000 0.000000 -2.751395 0.251429 -0.489370 0.277147 0.128206 -0.557650 97.999214 28.127007 32.961520 0.000000 0.000000 0.000000
0.000000 0.000000 0.000000 0.076662 0.014385 -0.787739 4.031497 -0.066387 -0.200424 -0.065262 2.269851 1.795532 0.771346 5.510761 1.123160 0.000000 0.000000 0.000000 -1.890642 0.131952 1.503211 -3.062638 -0.065136 -1.127663 -2.115634 -1.690747 -3.052968 0.000000 0.000000 0.000000 1.145991 0.308761 -0.111623 -1.551326 0.450077 1.535683 -0.618733 1.101023 1.945159 0.000000 0.000000 0.000000 -5.126129 -0.092126 -3.647441 15.822506 -5.774928 8.156609 73.560935 -46.145408 -14.820180 0.000000 0.000000 0.000000 -3.407534 0.308231 -0.626725 1.911061 -0.020624 -0.712813 98.457459 28.094325 33.351356 0.000000 0.000000 0.000000
0.000000 0.000000 0.000000 0.052087 0.136470 -0.522202 4.288924 -0.060208 -0.261494 -0.079545 1.879279 1.736577 2.469394 5.417732 1.698136 0.000000 0.000000 0.000000 -0.512426 -0.017428 1.200029 -0.542943 -1.558267 -3.223212 -0.286375 -2.266544 -4.519153 0.000000 0.000000 0.000000 2.053293 0.580304 -0.333857 -1.182643 1.802759 5.277559 -0.358537 3.163349 6.170060 0.000000 0.000000 0.000000 -1.178619 0.203761 2.455274 13.944230 -6.152526 10.521764 75.634843 -46.590140 -13.816406 0.000000 0.000000 0.000000 -3.110485 0.284692 -0.655884 2.561186 -0.170545 -0.482756 98.522108 28.096118 32.921373 0.000000 0.000000 0.000000
0.000000 0.000000 0.000000 -0.059956 0.097094 0.636636 5.076662 -0.192552 0.267569 -0.115651 1.095634 1.716429 7.262021 4.855633 3.260998 0.000000 0.000000 0.000000 1.256594 -0.152122 0.203161 3.707977 -2.082228 -3.084717 1.600818 -1.713748 -3.758572 0.000000 0.000000 0.000000 3.161021 0.808188 -0.041057 -0.611994 2.063632 5.997552 -0.718908 3.647622 6.918404 0.000000 0.000000 0.000000 1.801371 0.152608 7.182830 7.203377 -4.148415 10.075310 81.421160 -48.253932 -28.909386 0.000000 0.000000 0.000000 -2.802857 0.259701 -0.654375 2.189037 -0.290920 0.050887 98.312165 28.139651 30.344253 0.000000 0.000000 0.000000
0.000000 0.000000 0.000000 -0.145143 0.287432 1.575630 8.928983 -0.588484 1.399064 -0.090134 1.769183 1.800135 15.500212 5.010033 6.230416 0.000000 0.000000 0.000000 8.376570 -0.901631 -0.100602 5.356259 -1.352293 -0.952878 2.446386 -1.194985 -2.816432 0.000000 0.000000 0.000000 5.767391 1.203419 1.200233 0.922702 2.334071 6.767322 -1.111348 2.934962 5.315055 0.000000 0.000000 0.000000 2.096195 0.160379 8.493497 5.600181 -3.941762 10.858568 83.405341 -48.534830 -28.169244 0.000000 0.000000 0.000000 -2.423614 0.219718 -0.322038 1.660058 -0.475944 0.874923 98.484351 28.177330 26.998627 0.000000 0.000000 0.000000
0.000000 0.000000 0.000000 -0.259386 -0.397870 2.519900 11.050814 -0.927286 2.338400 -0.242155 -0.793931 2.056223 19.911008 4.441180 7.669905 0.000000 0.000000 0.000000 11.549914 -0.770960 -2.946150 8.646891 -1.019210 1.086512 5.084755 -0.206423 -1.048326 0.000000 0.000000 0.000000 6.236522 0.915658 3.013508 1.222010 2.331746 6.759817 -1.611263 2.859729 4.907374 0.000000 0.000000 0.000000 1.784803 0.235463 9.571786 2.426364 -3.648786 13.109807 84.115814 -48.638735 -31.531875 0.000000 0.000000 0.000000 -2.545900 0.215550 0.220144 -1.314860 -1.016523 4.239611 99.028977 28.347205 16.853394 0.000000 0.000000 0.000000
0.000000 0.000000 0.000000 -0.408401 -1.522714 3.501494 13.050610 -1.289788 3.250941 -0.350302 -2.404860 2.276514 19.753323 4.444162 7.613057 0.000000 0.000000 0.000000 14.305664 -0.352020 -6.336438 9.736799 -1.628175 0.054206 6.170255 -0.556083 -2.014330 0.000000 0.000000 0.000000 6.927463 0.812821 4.159296 0.843685 2.595584 7.545909 -2.707775 2.796735 4.230704 0.000000 0.000000 0.000000 1.505435 0.286083 9.939607 0.365697 -3.056235 13.141999 84.325022 -48.659534 -35.587146 0.000000 0.000000 0.000000 -3.115744 0.264746 0.285920 -1.692422 -1.428713 5.952204 96.487698 28.166395 8.146379 0.000000 0.000000 0.000000
0.000000 0.000000 0.000000 -0.554810 -3.029450 4.144276 14.108676 -1.537639 3.872903 -0.418500 -3.170045 2.498528 19.532948 4.388750 7.514992 0.000000 0.000000 0.000000 14.333350 0.459660 -10.568569 9.968569 -2.529458 -2.101053 5.309442 -1.387556 -3.772141 0.000000 0.000000 0.000000 7.490266 0.725070 5.066279 -0.531417 2.519918 7.301664 -4.832332 3.449142 4.387918 0.000000 0.000000 0.000000 0.503519 0.433464 10.173870 -2.053217 -2.458588 13.623756 84.029844 -48.630184 -38.234046 0.000000 0.000000 0.000000 -4.562899 0.393725 0.326942 1.540120 -2.023993 5.970193 91.861198 27.269591 0.892337 0.000000 0.000000 0.000000
0.000000 0.000000 0.000000 -0.610357 -4.018359 4.191037 18.480222 -1.938166 4.206213 -0.314686 -4.196735 1.309538 24.341748 3.160665 8.859654 0.000000 0.000000 0.000000 17.164177 0.947469 -13.020109 11.074873 -2.635650 -1.973881 8.523045 -0.971389 -3.438568 0.000000 0.000000 0.000000 8.919978 0.629020 6.686976 0.001563 2.086845 6.050564 -2.951080 2.685638 3.901473 0.000000 0.000000 0.000000 -0.836671 0.590033 9.663165 -4.662082 -1.723772 13.758548 86.686189 -48.841186 -39.526028 0.000000 0.000000 0.000000 -7.207377 0.630260 0.276271 -3.795431 -1.131870 6.270159 95.540841 27.997053 3.538594 0.000000 0.000000 0.000000
